<svg width="50" height="50" viewBox="0 0 50 50" fill="none" xmlns="http://www.w3.org/2000/svg">
<path d="M39.2456 4.41902L25.029 12.138V18.3712L43.617 8.20134C42.3158 6.74914 40.8487 5.45383 39.2456 4.34183V4.41902ZM19.5164 49.4016C21.3076 49.7975 23.1365 49.9981 24.971 49.9999V24.6622L19.5164 28.0199L1.00581 17.7536C0.453715 19.5737 0.116167 21.4518 0 23.3499L14.2553 31.2426L19.5164 28.0199V49.4016ZM46.441 37.8231L40.8897 34.4267V44.1913C43.0666 42.3918 44.9237 40.2388 46.383 37.8231H46.441ZM48.8975 17.6379C48.3679 15.8767 47.6412 14.1807 46.7311 12.5819L25.029 24.6622L30.2708 28.0585L48.8975 17.6379ZM49.5358 29.6602C49.8377 28.0956 49.9931 26.5064 50 24.913C50 24.3727 50 23.8517 50 23.3306L35.6286 31.1848L40.8897 34.4267L49.5358 29.6602ZM35.5899 47.5491V31.2812L30.1934 27.9814V49.4595C32.0666 49.0564 33.8894 48.4481 35.6286 47.6456L35.5899 47.5491ZM6.49904 8.18205C5.27123 9.52054 4.19449 10.9895 3.2882 12.5626L25.029 24.6622V18.4869L6.49904 8.18205ZM16.7118 1.50509C14.6602 2.24057 12.7104 3.23266 10.9091 4.45762L25.0484 12.2731V6.02072L16.7118 1.50509ZM14.3134 47.607V31.2426L8.93617 34.5425V44.1913C10.5862 45.5889 12.4136 46.7633 14.3714 47.6842L14.3134 47.607ZM3.59768 38.0354L8.97485 34.7162L0.444872 29.8725C0.998036 32.6963 2.04566 35.4007 3.53966 37.8617L3.59768 38.0354ZM25.029 -0.00012207V6.02072L33.4429 1.50509C30.7415 0.547645 27.8958 0.0581513 25.029 0.057772" fill="#EEEEEE"/>
</svg>
