<svg width="66" height="45" viewBox="0 0 66 45" fill="none" xmlns="http://www.w3.org/2000/svg">
<path d="M7.65405 34.9283V36.2667H5.00649V44.8823H3.54336V36.2667H0L0.88584 34.9283H7.65405ZM11.7747 36.2667H14.0838C14.4673 36.2399 14.848 36.3487 15.1588 36.574C15.3255 36.7093 15.457 36.8827 15.5419 37.0795C15.6268 37.2763 15.6627 37.4907 15.6465 37.7043C15.6561 38.1065 15.51 38.497 15.2384 38.7949C15.0808 38.9613 14.8888 39.0917 14.6758 39.1773C14.4628 39.2629 14.2337 39.3015 14.0042 39.2906H11.7747V36.2667ZM10.3116 44.8823H11.7747V40.629H13.6559L15.6465 44.8823H17.3883L15.1986 40.4307C15.7676 40.2343 16.2574 39.8597 16.5947 39.3628C16.932 38.866 17.0987 38.2737 17.0698 37.6745C17.0747 37.2691 16.9878 36.8678 16.8154 36.5005C16.6431 36.1331 16.3899 35.8092 16.0745 35.5529C15.5158 35.0957 14.806 34.8624 14.0838 34.8985H10.3016L10.3116 44.8823ZM20.7227 44.8823H22.1659V34.9679H20.7227V44.8823ZM33.0647 34.9679L30.3375 41.4222L27.5705 34.9382H26.1472V44.8525H27.6103V38.6759L29.601 43.4546H30.9247L32.9154 38.6759V44.8823H34.3785V34.9679H33.0647ZM39.3552 39.9251C39.338 39.2623 39.3746 38.5992 39.4646 37.9422C39.5123 37.6355 39.6431 37.3476 39.8429 37.1094C40.0089 36.8979 40.2196 36.7253 40.46 36.6038C40.7328 36.4598 41.037 36.3849 41.3458 36.3857C41.6642 36.3844 41.9782 36.4592 42.2615 36.6038C42.4903 36.726 42.6879 36.899 42.8388 37.1094C43.0449 37.3459 43.1826 37.6338 43.2369 37.9422C43.317 38.6 43.3502 39.2626 43.3365 39.9251C43.3511 40.5876 43.3179 41.2502 43.2369 41.908C43.1872 42.2179 43.049 42.507 42.8388 42.7408C42.6907 42.9537 42.4925 43.1273 42.2615 43.2464C41.9819 43.4017 41.6659 43.4804 41.3458 43.4744C41.035 43.4819 40.7282 43.403 40.46 43.2464C40.2175 43.1281 40.0062 42.9549 39.8429 42.7408C39.6394 42.5049 39.5082 42.2159 39.4646 41.908C39.3736 41.2511 39.3369 40.5879 39.3552 39.9251ZM37.892 39.9251C37.8769 40.6964 37.9101 41.4679 37.9916 42.2351C38.0199 42.4146 38.0665 42.5907 38.1309 42.7606C38.1807 42.8994 38.2503 43.0382 38.32 43.1968C38.5847 43.6867 38.9721 44.1 39.4447 44.3965C40.0076 44.7786 40.6746 44.9794 41.3558 44.9715C42.0398 44.9782 42.7097 44.7777 43.2767 44.3965C43.7423 44.0965 44.1201 43.6792 44.3716 43.1869C44.5597 42.8869 44.6756 42.5476 44.71 42.1955C44.7865 41.428 44.8164 40.6566 44.7996 39.8854C44.8174 39.111 44.7875 38.3362 44.71 37.5655C44.6793 37.2126 44.5632 36.8724 44.3716 36.574C44.1183 36.0776 43.7413 35.6543 43.2767 35.3447C42.7077 34.9699 42.0378 34.7763 41.3558 34.7895C40.734 34.7804 40.1217 34.9421 39.5862 35.257C39.0507 35.5718 38.6126 36.0275 38.32 36.574C38.1525 36.8648 38.0411 37.1843 37.9916 37.5159C37.9094 38.2897 37.8762 39.0679 37.892 39.8458V39.9251ZM54.0959 34.8886V41.9675L49.7065 34.8886H48.3031V44.803H49.7762V37.8034L54.1556 44.8823H55.5391V34.9679L54.0959 34.8886ZM58.3061 34.8886V36.2667H60.9836V44.8823H62.4467V36.2667H65.1042L66 34.9283L58.3061 34.8886ZM64.9649 44.1288C64.9676 44.2133 64.953 44.2975 64.9221 44.3762C64.8912 44.455 64.8445 44.5267 64.7849 44.5869C64.7254 44.6472 64.6542 44.6948 64.5756 44.7268C64.497 44.7588 64.4127 44.7746 64.3279 44.7732C64.2438 44.7733 64.1606 44.7565 64.0832 44.7239C64.0058 44.6912 63.9358 44.6434 63.8773 44.5833C63.8188 44.5232 63.773 44.452 63.7427 44.3739C63.7124 44.2958 63.6981 44.2125 63.7008 44.1288C63.6981 44.0456 63.7124 43.9627 63.7428 43.8851C63.7732 43.8076 63.8192 43.737 63.8778 43.6777C63.9364 43.6183 64.0066 43.5715 64.0839 43.5399C64.1613 43.5084 64.2443 43.4929 64.3279 43.4943C64.4119 43.4929 64.4953 43.5084 64.5732 43.5398C64.6511 43.5712 64.7219 43.6179 64.7813 43.6771C64.8407 43.7363 64.8876 43.8068 64.9191 43.8844C64.9506 43.962 64.9662 44.0451 64.9649 44.1288V44.1288ZM65.1142 44.1288C65.1266 44.0192 65.1157 43.9082 65.0821 43.8032C65.0485 43.6981 64.993 43.6012 64.9192 43.519C64.8455 43.4368 64.7551 43.371 64.6541 43.3259C64.553 43.2809 64.4435 43.2576 64.3328 43.2576C64.2221 43.2576 64.1127 43.2809 64.0116 43.3259C63.9105 43.371 63.8202 43.4368 63.7464 43.519C63.6727 43.6012 63.6172 43.6981 63.5836 43.8032C63.55 43.9082 63.5391 44.0192 63.5515 44.1288C63.5391 44.2384 63.55 44.3493 63.5836 44.4544C63.6172 44.5595 63.6727 44.6563 63.7464 44.7386C63.8202 44.8208 63.9105 44.8866 64.0116 44.9317C64.1127 44.9767 64.2221 45 64.3328 45C64.4435 45 64.553 44.9767 64.6541 44.9317C64.7551 44.8866 64.8455 44.8208 64.9192 44.7386C64.993 44.6563 65.0485 44.5595 65.0821 44.4544C65.1157 44.3493 65.1266 44.2384 65.1142 44.1288ZM64.1786 44.0693V43.7917H64.3577C64.4772 43.7917 64.5468 43.7917 64.5468 43.9206C64.5468 44.0495 64.4772 44.0693 64.3577 44.0693H64.1786ZM64.4572 44.1784C64.4899 44.1799 64.5225 44.1745 64.5528 44.1624C64.5832 44.1504 64.6106 44.132 64.6332 44.1085C64.6559 44.085 64.6732 44.057 64.684 44.0263C64.6949 43.9956 64.699 43.9629 64.6961 43.9305C64.6961 43.752 64.5966 43.6727 64.3876 43.6727H63.9695V44.5848H64.1188V44.1784H64.2482L64.507 44.5848H64.6663L64.3975 44.1784H64.4572ZM40.2808 2.27039L32.9652 6.23613V9.43846L42.5302 4.2136C41.8606 3.46751 41.1057 2.80203 40.2808 2.23073V2.27039ZM30.1285 25.3807C31.0502 25.5841 31.9913 25.6872 32.9353 25.6881V12.6705L30.1285 14.3956L20.6032 9.12121C20.3191 10.0563 20.1454 11.0212 20.0857 11.9964L27.4212 16.0513L30.1285 14.3956V25.3807ZM43.9834 19.4321L41.1268 17.6872V22.7039C42.247 21.7793 43.2027 20.6732 43.9536 19.4321H43.9834ZM45.2475 9.06172C44.975 8.15693 44.601 7.28558 44.1327 6.46416L32.9652 12.6705L35.6625 14.4155L45.2475 9.06172ZM45.5759 15.2384C45.7313 14.4345 45.8112 13.618 45.8148 12.7994C45.8148 12.5218 45.8148 12.2541 45.8148 11.9865L38.4195 16.0216L41.1268 17.6872L45.5759 15.2384ZM38.3996 24.429V16.0712L35.6227 14.3758V25.4105C36.5866 25.2034 37.5246 24.8908 38.4195 24.4785L38.3996 24.429ZM23.43 4.20369C22.7981 4.89135 22.2441 5.64606 21.7777 6.45424L32.9652 12.6705V9.49795L23.43 4.20369ZM28.6853 0.77332C27.6296 1.15118 26.6262 1.66088 25.6993 2.29022L32.9751 6.30553V3.09328L28.6853 0.77332ZM27.4511 24.4587V16.0513L24.6841 17.7467V22.7039C25.5331 23.4219 26.4735 24.0252 27.4809 24.4984L27.4511 24.4587ZM21.937 19.5412L24.704 17.8359L20.3146 15.3474C20.5992 16.7982 21.1383 18.1876 21.9071 19.452L21.937 19.5412ZM32.9652 0V3.09328L37.2948 0.77332C35.9047 0.281422 34.4404 0.0299386 32.9652 0.0297437" fill="#D7D2CB"/>
</svg>
