<svg width="20" height="20" viewBox="0 0 20 20" fill="none" xmlns="http://www.w3.org/2000/svg">
<path d="M15.8333 0H4.16667C1.86583 0 0 1.86583 0 4.16667V15.8333C0 18.1342 1.86583 20 4.16667 20H15.8333C18.135 20 20 18.1342 20 15.8333V4.16667C20 1.86583 18.135 0 15.8333 0Z" fill="#54565A"/>
<path fill-rule="evenodd" clip-rule="evenodd" d="M16 6.18457C15.521 6.38476 15.007 6.52066 14.4679 6.58127C15.0186 6.26905 15.4414 5.77319 15.6393 5.18365C15.1234 5.47383 14.5532 5.6832 13.9461 5.79706C13.4593 5.3067 12.767 5 11.999 5C10.5269 5 9.33224 6.13131 9.33224 7.52525C9.33224 7.7236 9.35551 7.91644 9.40206 8.10009C7.18529 7.99541 5.22065 6.98898 3.90571 5.46097C3.67686 5.83379 3.54498 6.26722 3.54498 6.73003C3.54498 7.60606 4.01626 8.37925 4.73191 8.83104C4.29554 8.81818 3.88438 8.70432 3.52365 8.51515C3.52365 8.52617 3.52365 8.53535 3.52365 8.54637C3.52365 9.76951 4.44294 10.7906 5.66284 11.022C5.4398 11.079 5.20319 11.1102 4.96076 11.1102C4.78815 11.1102 4.62136 11.0937 4.45845 11.0643C4.79785 12.067 5.78308 12.798 6.94868 12.8182C6.03521 13.4959 4.88707 13.8999 3.63613 13.8999C3.42086 13.8999 3.20946 13.8871 3 13.865C4.17917 14.5813 5.58138 15 7.08832 15C11.9931 15 14.6754 11.1524 14.6754 7.81543C14.6754 7.70523 14.6734 7.59688 14.6676 7.48852C15.1893 7.13223 15.6412 6.68779 15.9981 6.1809L16 6.18457Z" fill="white"/>
</svg>
